<?xml version="1.0" encoding="UTF-8" standalone="no"?>
<svg
   viewBox="0 0 224.21075 108.20977"
   version="1.1"
   id="svg42"
   sodipodi:docname="pay-force-logo-motto.svg"
   width="224.21075"
   height="108.20977"
   inkscape:version="1.1.2 (0a00cf5339, 2022-02-04)"
   xmlns:inkscape="http://www.inkscape.org/namespaces/inkscape"
   xmlns:sodipodi="http://sodipodi.sourceforge.net/DTD/sodipodi-0.dtd"
   xmlns="http://www.w3.org/2000/svg"
   xmlns:svg="http://www.w3.org/2000/svg">
  <sodipodi:namedview
     id="namedview44"
     pagecolor="#ffffff"
     bordercolor="#666666"
     borderopacity="1.0"
     inkscape:pageshadow="2"
     inkscape:pageopacity="0.0"
     inkscape:pagecheckerboard="0"
     showgrid="false"
     inkscape:zoom="5.9668211"
     inkscape:cx="112.03621"
     inkscape:cy="64.272079"
     inkscape:window-width="1920"
     inkscape:window-height="1080"
     inkscape:window-x="0"
     inkscape:window-y="0"
     inkscape:window-maximized="1"
     inkscape:current-layer="svg42" />
  <defs
     id="defs4">
    <style
       id="style2">.cls-1{fill:#c6c6c5;}.cls-1,.cls-2{fill-rule:evenodd;}.cls-2{fill:#e20613;}.cls-3{fill:#fff;}.cls-4{fill:#868686;}</style>
  </defs>
  <title
     id="title6">pay-force-logo-motto</title>
  <g
     id="Слой_2"
     data-name="Слой 2"
     transform="matrix(1,0,0,1.004455,0.00593876,0.00123294)">
    <g
       id="Layer_1"
       data-name="Layer 1">
      <path
         id="path8"
         class="cls-1"
         d="M 112.13281,0.00195313 C 77.09282,0.08945311 42.055625,1.9801562 6.640625,5.4101562 A 7.1,7.1 0 0 0 1.5800781,8.1796875 7.09,7.09 0 0 0 0.08007812,13.75 L 8,69.5 a 8.65,8.65 0 0 0 6.740234,7.330078 L 112.11914,99.289062 209.49023,76.830078 A 8.65,8.65 0 0 0 216.23047,69.5 l 7.92969,-55.75 -0.041,-0.0098 a 7.09,7.09 0 0 0 -1.47852,-5.5410152 7.1,7.1 0 0 0 -5,-2.7890626 C 182.21561,1.6302244 147.17281,-0.08554687 112.13281,0.00195313 Z" />
      <path
         class="cls-2"
         d="m 8.62,12.56 c 67.85,-6.89 142.6,-7.31 207,0 a 1.24,1.24 0 0 1 1.09,1.4 L 209,68.57 a 1.3,1.3 0 0 1 -1,1.1 L 112.12,91.76 16.3,69.67 a 1.3,1.3 0 0 1 -1,-1.1 L 7.52,14 a 1.24,1.24 0 0 1 1.1,-1.41"
         id="path10" />
      <path
         class="cls-3"
         d="m 141.09,50.16 a 3.19,3.19 0 0 1 -0.86,2.5 3.4,3.4 0 0 1 -4.42,0 3.19,3.19 0 0 1 -0.86,-2.5 V 35.34 a 3.19,3.19 0 0 1 0.86,-2.49 3.39,3.39 0 0 1 4.42,0 3.18,3.18 0 0 1 0.86,2.49 v 14.82 m -10.23,-0.61 c 0,2.17 0.16,4.26 2.13,6.1 a 7.81,7.81 0 0 0 10.07,0 c 2,-1.84 2.13,-3.93 2.13,-6.1 V 36 c 0,-2.17 -0.16,-4.26 -2.13,-6.1 a 7.8,7.8 0 0 0 -10.07,0 c -2,1.84 -2.13,3.93 -2.13,6.1 z m 22.28,-17.23 h 2.13 c 2.31,0 3.6,0.82 3.6,3.21 v 2.07 c 0,2.11 -1.3,3.21 -3.6,3.21 h -2.13 z M 149,28.43 v 28.65 h 4.09 V 44.7 h 2.42 l 4,12.38 h 4.26 l -4.5,-13.22 a 5.67,5.67 0 0 0 2.17,-1.47 7.18,7.18 0 0 0 1.56,-4.55 v -2.17 a 7.87,7.87 0 0 0 -1.51,-5 c -1.93,-2.37 -5,-2.25 -7,-2.25 z m 27.14,8.15 h 4 v -2 a 6.76,6.76 0 0 0 -1.84,-4.75 7.45,7.45 0 0 0 -9.62,-0.16 6.93,6.93 0 0 0 -2.09,5.61 v 14.88 a 7.29,7.29 0 0 0 1.41,5.16 6.39,6.39 0 0 0 5.16,2.17 7.06,7.06 0 0 0 5.36,-1.92 7.49,7.49 0 0 0 1.72,-5.24 v -1.19 h -4.09 v 1 a 3.81,3.81 0 0 1 -0.57,2.33 2.84,2.84 0 0 1 -2.29,1 2.49,2.49 0 0 1 -2.09,-1 4.12,4.12 0 0 1 -0.53,-2.54 V 35.79 a 4.27,4.27 0 0 1 0.73,-2.79 2.6,2.6 0 0 1 2.13,-0.94 2.49,2.49 0 0 1 2.13,1 3.55,3.55 0 0 1 0.53,1.88 z m 7.95,20.5 h 12.28 v -3.89 h -8.19 V 44.7 h 7.12 v -3.89 h -7.12 v -8.49 h 8.19 v -3.89 h -12.24 z m -68.86,0 h 4.09 V 44.7 h 7.33 v -3.89 h -7.33 v -8.49 h 8.35 v -3.89 h -12.4 z"
         id="path12" />
      <path
         class="cls-3"
         d="m 91.19,46.45 v 6.74 h -3.66 v 3.89 h 13.39 v -3.89 h -3.67 v -6.74 l 9.59,-14.14 h 2.06 V 28.43 H 97 v 3.89 h 3.42 L 94.2,42.13 88,32.32 h 3.42 V 28.43 H 79.55 v 3.89 h 2.06 L 91.2,46.46 M 62.74,43.82 67,32.32 71.1,43.82 Z M 51,57.08 H 62.74 V 53.19 H 59.29 L 61.21,48 H 72.6 l 1.86,5.18 H 71 v 3.89 H 83.31 V 53.19 H 80.83 L 71,28.43 h -7.48 l -10,24.76 H 51 Z M 37.55,41.95 V 32.32 H 42 a 4.64,4.64 0 0 1 5,4.81 4.78,4.78 0 0 1 -5,4.82 z m -6.06,11.24 h -3.67 v 3.89 H 42.21 V 53.19 H 37.55 V 46 h 5.32 c 6.93,0 10.33,-4.39 10.3,-8.79 -0.03,-4.4 -3.49,-8.79 -10.3,-8.79 h -15 v 3.89 h 3.66 z"
         id="path14" />
      <path
         id="path24"
         class="cls-4"
         d="m 188.42188,102.18555 c -0.0159,0.0176 -0.0237,0.0244 -0.0352,0.0371 -0.0119,0.0132 -0.0425,0.0587 -0.0312,0.0449 0.0365,-0.0446 0.0354,-0.0436 0.0664,-0.082 z m 7.24804,5.53906 c -0.006,7e-4 -0.0363,0.003 -0.043,0.004 0.0144,-5.8e-4 0.0286,-4e-5 0.043,0 a 3.49,3.49 0 0 0 0,-0.004 z" />
    </g>
  </g>
</svg>
